<svg xmlns="http://www.w3.org/2000/svg" viewBox="0 0 32 32">
  <rect width="32" height="32" rx="6" fill="#1a1308"/>
  <path d="M25.5 17.25c.05-.4.08-.8.08-1.25s-.03-.87-.09-1.25l2.71-2.11a.65.65 0 00.16-.81l-2.56-4.43a.65.65 0 00-.79-.29l-3.19 1.28c-.67-.51-1.37-.93-2.16-1.25l-.48-3.39A.65.65 0 0018.53 4h-5.12c-.32 0-.58.23-.63.55l-.48 3.39c-.79.32-1.51.76-2.16 1.25l-3.19-1.28a.65.65 0 00-.79.29L3.6 12.63a.65.65 0 00.16.81l2.71 2.11c-.07.4-.09.83-.09 1.25s.03.87.09 1.25l-2.71 2.11a.65.65 0 00-.16.81l2.56 4.43c.16.29.49.39.79.29l3.19-1.28c.67.5 1.37.93 2.16 1.25l.48 3.39c.05.32.29.55.63.55h5.12c.32 0 .58-.23.63-.55l.48-3.39c.79-.32 1.51-.75 2.16-1.25l3.19 1.28c.29.12.63 0 .79-.29l2.56-4.43a.65.65 0 00-.16-.81l-2.68-2.11zM16 20.8c-2.64 0-4.8-2.16-4.8-4.8s2.16-4.8 4.8-4.8 4.8 2.16 4.8 4.8-2.16 4.8-4.8 4.8z" fill="#c87828"/>
</svg>
